<mxfile host="app.diagrams.net" modified="2023-04-03T06:19:09.942Z" agent="Mozilla/5.0 (Windows NT 10.0; Win64; x64) AppleWebKit/537.36 (KHTML, like Gecko) Chrome/111.0.0.0 Safari/537.36" etag="SMsQuBKgkg57gfxETuhq" version="21.1.2" type="github">
  <diagram name="Page-1" id="KtBC9ypOYuoR28uKRFg1">
    <mxGraphModel dx="1050" dy="541" grid="1" gridSize="10" guides="1" tooltips="1" connect="1" arrows="1" fold="1" page="1" pageScale="1" pageWidth="850" pageHeight="1100" math="0" shadow="0">
      <root>
        <mxCell id="0" />
        <mxCell id="1" parent="0" />
        <mxCell id="bhDl7u7b3H8_nq6s0Uaa-9" value="" style="group" vertex="1" connectable="0" parent="1">
          <mxGeometry x="710" y="100" width="120" height="230" as="geometry" />
        </mxCell>
        <mxCell id="bhDl7u7b3H8_nq6s0Uaa-6" value="" style="rounded=0;whiteSpace=wrap;html=1;dashed=1;" vertex="1" parent="bhDl7u7b3H8_nq6s0Uaa-9">
          <mxGeometry y="30" width="120" height="200" as="geometry" />
        </mxCell>
        <mxCell id="bhDl7u7b3H8_nq6s0Uaa-4" value="Keycloak" style="rounded=1;whiteSpace=wrap;html=1;" vertex="1" parent="bhDl7u7b3H8_nq6s0Uaa-9">
          <mxGeometry x="15" y="70" width="90" height="30" as="geometry" />
        </mxCell>
        <mxCell id="bhDl7u7b3H8_nq6s0Uaa-5" value="Email Service" style="rounded=1;whiteSpace=wrap;html=1;" vertex="1" parent="bhDl7u7b3H8_nq6s0Uaa-9">
          <mxGeometry x="15" y="150" width="90" height="30" as="geometry" />
        </mxCell>
        <mxCell id="bhDl7u7b3H8_nq6s0Uaa-8" value="External Services" style="text;html=1;strokeColor=none;fillColor=none;align=center;verticalAlign=middle;whiteSpace=wrap;rounded=0;" vertex="1" parent="bhDl7u7b3H8_nq6s0Uaa-9">
          <mxGeometry x="10" width="100" height="30" as="geometry" />
        </mxCell>
        <mxCell id="bhDl7u7b3H8_nq6s0Uaa-26" value="" style="group" vertex="1" connectable="0" parent="1">
          <mxGeometry x="200" y="100" width="500" height="370" as="geometry" />
        </mxCell>
        <mxCell id="bhDl7u7b3H8_nq6s0Uaa-44" value="" style="rounded=0;whiteSpace=wrap;html=1;strokeWidth=3;dashed=1;" vertex="1" parent="bhDl7u7b3H8_nq6s0Uaa-26">
          <mxGeometry x="-60" y="-30" width="560" height="400" as="geometry" />
        </mxCell>
        <mxCell id="bhDl7u7b3H8_nq6s0Uaa-25" value="" style="rounded=0;whiteSpace=wrap;html=1;" vertex="1" parent="bhDl7u7b3H8_nq6s0Uaa-26">
          <mxGeometry width="480" height="270" as="geometry" />
        </mxCell>
        <mxCell id="bhDl7u7b3H8_nq6s0Uaa-1" value="User" style="rounded=0;whiteSpace=wrap;html=1;" vertex="1" parent="bhDl7u7b3H8_nq6s0Uaa-26">
          <mxGeometry x="135" y="30" width="85" height="30" as="geometry" />
        </mxCell>
        <mxCell id="bhDl7u7b3H8_nq6s0Uaa-2" value="Customer" style="rounded=0;whiteSpace=wrap;html=1;" vertex="1" parent="bhDl7u7b3H8_nq6s0Uaa-26">
          <mxGeometry x="40" y="90" width="100" height="30" as="geometry" />
        </mxCell>
        <mxCell id="bhDl7u7b3H8_nq6s0Uaa-3" value="Staff" style="rounded=0;whiteSpace=wrap;html=1;" vertex="1" parent="bhDl7u7b3H8_nq6s0Uaa-26">
          <mxGeometry x="210" y="90" width="90" height="30" as="geometry" />
        </mxCell>
        <mxCell id="bhDl7u7b3H8_nq6s0Uaa-10" value="Delivery" style="rounded=0;whiteSpace=wrap;html=1;" vertex="1" parent="bhDl7u7b3H8_nq6s0Uaa-26">
          <mxGeometry x="40" y="200" width="90" height="30" as="geometry" />
        </mxCell>
        <mxCell id="bhDl7u7b3H8_nq6s0Uaa-11" value="Admin" style="rounded=0;whiteSpace=wrap;html=1;" vertex="1" parent="bhDl7u7b3H8_nq6s0Uaa-26">
          <mxGeometry x="150" y="200" width="90" height="30" as="geometry" />
        </mxCell>
        <mxCell id="bhDl7u7b3H8_nq6s0Uaa-12" value="Kitchen" style="rounded=0;whiteSpace=wrap;html=1;" vertex="1" parent="bhDl7u7b3H8_nq6s0Uaa-26">
          <mxGeometry x="370" y="200" width="90" height="30" as="geometry" />
        </mxCell>
        <mxCell id="bhDl7u7b3H8_nq6s0Uaa-13" value="Store" style="rounded=0;whiteSpace=wrap;html=1;" vertex="1" parent="bhDl7u7b3H8_nq6s0Uaa-26">
          <mxGeometry x="260" y="200" width="90" height="30" as="geometry" />
        </mxCell>
        <mxCell id="bhDl7u7b3H8_nq6s0Uaa-14" value="" style="endArrow=classic;html=1;rounded=0;exitX=0.5;exitY=1;exitDx=0;exitDy=0;entryX=0.5;entryY=0;entryDx=0;entryDy=0;" edge="1" parent="bhDl7u7b3H8_nq6s0Uaa-26" source="bhDl7u7b3H8_nq6s0Uaa-1" target="bhDl7u7b3H8_nq6s0Uaa-3">
          <mxGeometry width="50" height="50" relative="1" as="geometry">
            <mxPoint x="120" y="70" as="sourcePoint" />
            <mxPoint x="178" y="80" as="targetPoint" />
            <Array as="points">
              <mxPoint x="178" y="80" />
              <mxPoint x="240" y="80" />
            </Array>
          </mxGeometry>
        </mxCell>
        <mxCell id="bhDl7u7b3H8_nq6s0Uaa-15" value="" style="endArrow=classic;html=1;rounded=0;entryX=0.5;entryY=0;entryDx=0;entryDy=0;exitX=0.5;exitY=1;exitDx=0;exitDy=0;" edge="1" parent="bhDl7u7b3H8_nq6s0Uaa-26" source="bhDl7u7b3H8_nq6s0Uaa-1" target="bhDl7u7b3H8_nq6s0Uaa-2">
          <mxGeometry width="50" height="50" relative="1" as="geometry">
            <mxPoint x="120" y="70" as="sourcePoint" />
            <mxPoint x="170" y="20" as="targetPoint" />
            <Array as="points">
              <mxPoint x="180" y="80" />
              <mxPoint x="120" y="80" />
            </Array>
          </mxGeometry>
        </mxCell>
        <mxCell id="bhDl7u7b3H8_nq6s0Uaa-16" value="" style="endArrow=none;html=1;rounded=0;entryX=0.5;entryY=1;entryDx=0;entryDy=0;" edge="1" parent="bhDl7u7b3H8_nq6s0Uaa-26" target="bhDl7u7b3H8_nq6s0Uaa-3">
          <mxGeometry width="50" height="50" relative="1" as="geometry">
            <mxPoint x="255" y="170" as="sourcePoint" />
            <mxPoint x="50" y="-30" as="targetPoint" />
          </mxGeometry>
        </mxCell>
        <mxCell id="bhDl7u7b3H8_nq6s0Uaa-20" value="" style="endArrow=none;html=1;rounded=0;" edge="1" parent="bhDl7u7b3H8_nq6s0Uaa-26">
          <mxGeometry width="50" height="50" relative="1" as="geometry">
            <mxPoint x="80" y="170" as="sourcePoint" />
            <mxPoint x="410" y="170" as="targetPoint" />
          </mxGeometry>
        </mxCell>
        <mxCell id="bhDl7u7b3H8_nq6s0Uaa-21" value="" style="endArrow=classic;html=1;rounded=0;entryX=0.5;entryY=0;entryDx=0;entryDy=0;" edge="1" parent="bhDl7u7b3H8_nq6s0Uaa-26" target="bhDl7u7b3H8_nq6s0Uaa-10">
          <mxGeometry width="50" height="50" relative="1" as="geometry">
            <mxPoint x="80" y="170" as="sourcePoint" />
            <mxPoint x="-60" y="170" as="targetPoint" />
          </mxGeometry>
        </mxCell>
        <mxCell id="bhDl7u7b3H8_nq6s0Uaa-22" value="" style="endArrow=classic;html=1;rounded=0;entryX=0.5;entryY=0;entryDx=0;entryDy=0;" edge="1" parent="bhDl7u7b3H8_nq6s0Uaa-26" target="bhDl7u7b3H8_nq6s0Uaa-11">
          <mxGeometry width="50" height="50" relative="1" as="geometry">
            <mxPoint x="200" y="170" as="sourcePoint" />
            <mxPoint x="95" y="210" as="targetPoint" />
          </mxGeometry>
        </mxCell>
        <mxCell id="bhDl7u7b3H8_nq6s0Uaa-23" value="" style="endArrow=classic;html=1;rounded=0;entryX=0.5;entryY=0;entryDx=0;entryDy=0;" edge="1" parent="bhDl7u7b3H8_nq6s0Uaa-26" target="bhDl7u7b3H8_nq6s0Uaa-13">
          <mxGeometry width="50" height="50" relative="1" as="geometry">
            <mxPoint x="310" y="170" as="sourcePoint" />
            <mxPoint x="105" y="220" as="targetPoint" />
          </mxGeometry>
        </mxCell>
        <mxCell id="bhDl7u7b3H8_nq6s0Uaa-24" value="" style="endArrow=classic;html=1;rounded=0;entryX=0.5;entryY=0;entryDx=0;entryDy=0;" edge="1" parent="bhDl7u7b3H8_nq6s0Uaa-26" target="bhDl7u7b3H8_nq6s0Uaa-12">
          <mxGeometry width="50" height="50" relative="1" as="geometry">
            <mxPoint x="410" y="170" as="sourcePoint" />
            <mxPoint x="179" y="208" as="targetPoint" />
          </mxGeometry>
        </mxCell>
        <mxCell id="bhDl7u7b3H8_nq6s0Uaa-36" value="Staff API" style="rounded=1;whiteSpace=wrap;html=1;" vertex="1" parent="bhDl7u7b3H8_nq6s0Uaa-26">
          <mxGeometry x="-50" y="170" width="90" height="30" as="geometry" />
        </mxCell>
        <mxCell id="bhDl7u7b3H8_nq6s0Uaa-27" value="" style="endArrow=classic;startArrow=classic;html=1;rounded=0;exitX=1;exitY=0.5;exitDx=0;exitDy=0;" edge="1" parent="1" source="bhDl7u7b3H8_nq6s0Uaa-25" target="bhDl7u7b3H8_nq6s0Uaa-6">
          <mxGeometry width="50" height="50" relative="1" as="geometry">
            <mxPoint x="610" y="230" as="sourcePoint" />
            <mxPoint x="660" y="180" as="targetPoint" />
          </mxGeometry>
        </mxCell>
        <mxCell id="bhDl7u7b3H8_nq6s0Uaa-29" value="Event Stream(Masstransit)" style="rounded=0;whiteSpace=wrap;html=1;" vertex="1" parent="1">
          <mxGeometry x="200" y="500" width="480" height="30" as="geometry" />
        </mxCell>
        <mxCell id="bhDl7u7b3H8_nq6s0Uaa-30" value="" style="endArrow=classic;html=1;rounded=0;entryX=0.5;entryY=0;entryDx=0;entryDy=0;exitX=0.5;exitY=1;exitDx=0;exitDy=0;" edge="1" parent="1" source="bhDl7u7b3H8_nq6s0Uaa-25" target="bhDl7u7b3H8_nq6s0Uaa-29">
          <mxGeometry width="50" height="50" relative="1" as="geometry">
            <mxPoint x="40" y="410" as="sourcePoint" />
            <mxPoint x="90" y="360" as="targetPoint" />
          </mxGeometry>
        </mxCell>
        <mxCell id="bhDl7u7b3H8_nq6s0Uaa-31" value="Customer" style="verticalLabelPosition=bottom;html=1;verticalAlign=top;align=center;strokeColor=none;fillColor=#00BEF2;shape=mxgraph.azure.azure_website;pointerEvents=1;" vertex="1" parent="1">
          <mxGeometry x="30" y="130" width="50" height="50" as="geometry" />
        </mxCell>
        <mxCell id="bhDl7u7b3H8_nq6s0Uaa-32" value="Staff" style="verticalLabelPosition=bottom;html=1;verticalAlign=top;align=center;strokeColor=none;fillColor=#00BEF2;shape=mxgraph.azure.azure_website;pointerEvents=1;" vertex="1" parent="1">
          <mxGeometry x="30" y="290" width="50" height="50" as="geometry" />
        </mxCell>
        <mxCell id="bhDl7u7b3H8_nq6s0Uaa-34" value="" style="endArrow=none;html=1;rounded=0;strokeWidth=8;" edge="1" parent="1">
          <mxGeometry width="50" height="50" relative="1" as="geometry">
            <mxPoint x="100" y="390" as="sourcePoint" />
            <mxPoint x="100" y="110" as="targetPoint" />
          </mxGeometry>
        </mxCell>
        <mxCell id="bhDl7u7b3H8_nq6s0Uaa-35" value="Customer API" style="rounded=1;whiteSpace=wrap;html=1;" vertex="1" parent="1">
          <mxGeometry x="150" y="150" width="90" height="30" as="geometry" />
        </mxCell>
        <mxCell id="bhDl7u7b3H8_nq6s0Uaa-38" value="API Gateway" style="text;html=1;strokeColor=none;fillColor=none;align=center;verticalAlign=middle;whiteSpace=wrap;rounded=0;" vertex="1" parent="1">
          <mxGeometry x="70" y="400" width="60" height="30" as="geometry" />
        </mxCell>
        <mxCell id="bhDl7u7b3H8_nq6s0Uaa-40" value="" style="endArrow=none;html=1;rounded=0;" edge="1" parent="1">
          <mxGeometry width="50" height="50" relative="1" as="geometry">
            <mxPoint x="130" y="290" as="sourcePoint" />
            <mxPoint x="130" y="160" as="targetPoint" />
          </mxGeometry>
        </mxCell>
        <mxCell id="bhDl7u7b3H8_nq6s0Uaa-41" value="" style="endArrow=none;html=1;rounded=0;exitX=0;exitY=0.5;exitDx=0;exitDy=0;" edge="1" parent="1" source="bhDl7u7b3H8_nq6s0Uaa-35">
          <mxGeometry width="50" height="50" relative="1" as="geometry">
            <mxPoint x="140" y="300" as="sourcePoint" />
            <mxPoint x="130" y="160" as="targetPoint" />
          </mxGeometry>
        </mxCell>
        <mxCell id="bhDl7u7b3H8_nq6s0Uaa-42" value="" style="endArrow=none;html=1;rounded=0;exitX=0;exitY=0.5;exitDx=0;exitDy=0;" edge="1" parent="1">
          <mxGeometry width="50" height="50" relative="1" as="geometry">
            <mxPoint x="151" y="293" as="sourcePoint" />
            <mxPoint x="131" y="288" as="targetPoint" />
          </mxGeometry>
        </mxCell>
        <mxCell id="bhDl7u7b3H8_nq6s0Uaa-43" value="" style="endArrow=classic;startArrow=classic;html=1;rounded=0;" edge="1" parent="1">
          <mxGeometry width="50" height="50" relative="1" as="geometry">
            <mxPoint x="110" y="220" as="sourcePoint" />
            <mxPoint x="130" y="220" as="targetPoint" />
          </mxGeometry>
        </mxCell>
        <mxCell id="bhDl7u7b3H8_nq6s0Uaa-45" value="User Service" style="text;html=1;strokeColor=none;fillColor=none;align=center;verticalAlign=middle;whiteSpace=wrap;rounded=0;" vertex="1" parent="1">
          <mxGeometry x="380" y="40" width="90" height="30" as="geometry" />
        </mxCell>
      </root>
    </mxGraphModel>
  </diagram>
</mxfile>
